<svg width="20" height="21" viewBox="0 0 20 21" fill="none" xmlns="http://www.w3.org/2000/svg">
<path fill-rule="evenodd" clip-rule="evenodd" d="M15.7208 5.05834C16.085 5.18584 16.3283 5.52917 16.3283 5.91501V11.5592C16.3283 13.1367 15.755 14.6425 14.7425 15.8092C14.2333 16.3967 13.5891 16.8542 12.905 17.2242L9.93996 18.8258L6.96996 17.2233C6.28496 16.8533 5.63996 16.3967 5.12996 15.8083C4.11663 14.6417 3.54163 13.135 3.54163 11.5558V5.91501C3.54163 5.52917 3.78496 5.18584 4.14913 5.05834L9.63413 3.13084C9.82913 3.06251 10.0416 3.06251 10.2358 3.13084L15.7208 5.05834Z" stroke="#0601B4" stroke-linecap="round" stroke-linejoin="round"/>
<path opacity="0.4" d="M7.76868 10.7202L9.34534 12.2977L12.5937 9.04932" stroke="#0601B4" stroke-linecap="round" stroke-linejoin="round"/>
</svg>
